<?xml version="1.0" standalone="no"?>
<!DOCTYPE svg PUBLIC "-//W3C//DTD SVG 20010904//EN"
 "http://www.w3.org/TR/2001/REC-SVG-20010904/DTD/svg10.dtd">
<svg version="1.0" xmlns="http://www.w3.org/2000/svg"
 width="497.000000pt" height="369.000000pt" viewBox="0 0 497.000000 369.000000"
 preserveAspectRatio="xMidYMid meet">

<g transform="translate(0.000000,369.000000) scale(0.100000,-0.100000)"
fill="#000000" stroke="none">
<path d="M3453 3120 c-31 -13 -43 -41 -36 -86 8 -53 26 -70 86 -84 203 -48
402 -244 462 -455 29 -102 68 -121 112 -56 28 42 29 84 2 164 -83 248 -269
428 -523 506 -76 23 -73 23 -103 11z m162 -59 c159 -61 308 -194 383 -339 22
-42 43 -88 46 -102 4 -14 -11 9 -34 51 -74 137 -185 249 -319 318 -89 46 -206
84 -233 75 -21 -6 -24 6 -5 25 16 17 71 8 162 -28z"/>
<path d="M3391 2904 c-14 -17 -20 -36 -17 -49 3 -11 6 -28 6 -37 0 -25 36 -58
63 -58 40 0 147 -58 203 -111 63 -60 105 -129 129 -212 25 -87 78 -99 115 -26
25 49 25 59 -5 144 -32 91 -104 195 -174 252 -68 56 -185 112 -250 120 -44 5
-50 3 -70 -23z m145 -26 c76 -28 163 -87 217 -149 46 -51 117 -180 117 -210 0
-8 -14 14 -31 49 -37 76 -124 173 -202 223 -67 44 -177 83 -213 76 -28 -5 -31
5 -8 27 17 18 37 15 120 -16z"/>
<path d="M2295 2786 c-272 -52 -506 -176 -700 -370 -346 -347 -465 -827 -316
-1268 131 -387 437 -693 821 -822 165 -55 266 -69 465 -63 225 6 351 37 540
132 156 77 241 139 357 258 140 141 237 297 301 483 114 329 89 649 -75 965
-143 276 -403 509 -686 616 -161 60 -245 75 -447 79 -130 2 -212 -1 -260 -10z
m517 -155 c472 -117 819 -514 879 -1004 34 -284 -91 -626 -315 -864 -69 -73
-187 -173 -204 -173 -4 0 -6 31 -4 69 l4 69 48 6 c26 4 63 17 81 29 32 22 34
27 40 97 4 41 7 204 8 363 l1 287 65 0 c62 0 65 1 65 24 0 13 14 50 31 82 29
56 31 64 27 146 -3 67 -8 92 -23 108 -10 11 -21 40 -24 63 l-6 42 -66 3 -66 3
-6 74 c-4 41 -13 90 -20 108 -32 76 -179 175 -337 227 -78 25 -269 39 -535 39
-272 0 -371 -18 -530 -97 -150 -74 -206 -145 -213 -273 l-5 -78 -66 -3 -66 -3
-5 -41 c-3 -22 -16 -53 -28 -69 -19 -24 -22 -40 -22 -119 0 -83 3 -96 25 -126
16 -22 25 -47 25 -72 l0 -38 70 0 70 0 1 -342 c1 -189 4 -354 8 -367 8 -30 58
-57 122 -66 l49 -7 0 -75 0 -74 -30 17 c-46 28 -164 133 -220 197 -210 242
-317 564 -280 847 63 490 430 892 910 999 123 27 160 30 305 25 88 -3 151 -12
237 -33z m153 -285 c159 -46 301 -147 324 -231 7 -25 11 -160 11 -357 l0 -318
-770 0 -770 0 -2 178 c-2 97 -2 247 0 332 4 180 16 217 86 275 54 44 195 110
266 124 30 6 64 13 75 15 11 2 178 3 370 2 298 -2 359 -5 410 -20z m-1255
-601 l0 -185 -45 0 c-39 0 -45 3 -45 21 0 11 9 32 20 46 30 38 29 191 -1 240
-28 45 -20 63 31 63 l40 0 0 -185z m1727 169 c3 -9 -5 -29 -18 -47 -21 -28
-24 -43 -24 -122 0 -79 3 -94 24 -122 32 -43 23 -63 -29 -63 l-40 0 0 185 0
185 40 0 c28 0 43 -5 47 -16z m-137 -729 l0 -205 -770 0 -770 0 0 205 0 205
770 0 770 0 0 -205z m0 -299 c0 -33 -7 -52 -26 -75 l-26 -31 -331 1 c-456 1
-1097 15 -1125 24 -22 7 -25 15 -37 88 l-6 37 776 0 775 0 0 -44z m-420 -246
c0 -95 13 -140 47 -159 16 -8 14 -11 -12 -21 -65 -25 -181 -50 -286 -61 -126
-13 -267 -2 -405 32 -107 27 -115 32 -86 59 26 24 29 37 37 153 l7 87 349 0
349 0 0 -90z"/>
<path d="M2344 2269 c-14 -23 26 -29 191 -26 143 2 170 4 170 17 0 13 -28 15
-177 18 -123 2 -179 -1 -184 -9z"/>
<path d="M2044 2141 c-79 -8 -119 -28 -136 -69 -6 -15 -13 -119 -16 -234 -4
-181 -2 -211 12 -233 l16 -25 273 0 c203 0 277 3 290 13 13 10 18 39 23 157 9
198 -2 376 -24 386 -23 10 -351 14 -438 5z m416 -271 l0 -230 -255 0 -255 0 0
203 c0 153 3 208 13 221 20 28 72 34 295 35 l202 1 0 -230z"/>
<path d="M2607 2143 c-30 -3 -40 -10 -48 -31 -6 -16 -9 -122 -7 -270 2 -202 5
-244 18 -252 8 -6 133 -10 287 -10 225 0 274 3 286 15 34 34 33 408 -1 477
-33 65 -61 72 -291 74 -113 1 -223 0 -244 -3z m475 -71 c22 -22 23 -30 26
-227 l4 -205 -256 0 -256 0 0 231 0 231 230 -4 c223 -3 230 -4 252 -26z"/>
<path d="M1975 1266 c-33 -14 -55 -52 -55 -92 0 -36 51 -84 88 -84 37 0 87 40
96 75 9 34 -17 81 -54 100 -35 18 -36 18 -75 1z"/>
<path d="M2301 1271 c-8 -5 -11 -15 -8 -23 14 -37 450 -37 464 0 3 8 0 18 -8
23 -18 11 -430 11 -448 0z"/>
<path d="M2983 1245 c-32 -32 -35 -40 -30 -73 8 -46 47 -82 89 -82 39 0 98 57
98 95 0 36 -59 95 -95 95 -18 0 -39 -12 -62 -35z"/>
<path d="M2295 1120 c-4 -6 -4 -14 0 -18 9 -10 451 -9 461 1 4 4 4 10 0 15
-13 12 -453 15 -461 2z"/>
<path d="M3360 2722 c-19 -16 -24 -28 -23 -60 3 -60 17 -79 76 -99 72 -25 148
-101 167 -166 23 -84 79 -97 115 -27 22 43 18 88 -14 155 -35 74 -97 138 -171
175 -80 40 -120 46 -150 22z m134 -42 c66 -31 119 -83 154 -148 40 -75 42
-105 3 -37 -16 28 -48 68 -71 89 -51 46 -143 90 -187 90 -36 0 -40 5 -20 25
15 16 65 9 121 -19z"/>
</g>
</svg>
